<?xml version="1.0" encoding="UTF-8"?>
<svg width="12px" height="9px" viewBox="0 0 12 9" version="1.1" xmlns="http://www.w3.org/2000/svg" xmlns:xlink="http://www.w3.org/1999/xlink">
    <!-- Generator: Sketch 50.2 (55047) - http://www.bohemiancoding.com/sketch -->
    <title>Fill 1</title>
    <desc>Created with Sketch.</desc>
    <defs></defs>
    <g id="Page-1" stroke="none" stroke-width="1" fill="none" fill-rule="evenodd">
        <g id="Blog-oversigt" transform="translate(-1152.000000, -2217.000000)" fill="#414141">
            <g id="Group-5" transform="translate(978.000000, 2196.000000)">
                <path d="M185.870192,25.1743835 L182.177865,21.1480799 C182.005689,20.9648973 181.726247,20.9436195 181.525223,21.1295779 C181.345836,21.2951821 181.341327,21.6189869 181.507195,21.7993866 L184.471208,25.0263506 L174.461541,25.0263506 C174.206424,25.0263506 174,25.2382123 174,25.5000333 C174,25.7618544 174.206431,25.9737161 174.461541,25.9737161 L184.471208,25.9737161 L181.507195,29.20068 C181.341329,29.3810869 181.353047,29.6965809 181.525223,29.8704912 C181.707315,30.0536738 182.00841,30.0379451 182.177865,29.8519891 L185.870192,25.8256855 C185.978365,25.7165158 185.998198,25.611048 186,25.5000286 C186,25.3908708 185.935096,25.2447017 185.870192,25.1743835 Z" id="Fill-1"></path>
            </g>
        </g>
    </g>
</svg>