<svg id="Layer_1" data-name="Layer 1" xmlns="http://www.w3.org/2000/svg" viewBox="0 0 4179.26 1064.14"><defs><style>.cls-1{fill:#ed1c24;}.cls-2{fill:#0071bc;}.cls-3{fill:#fdb22f;}.cls-4{fill:#009245;}.cls-5{fill:#e73724;}.cls-6{fill:#4d4d4d;}</style></defs><title>LOGO cfdp 2018Simple longsvg</title><path class="cls-1" d="M90.91,637.94s-56.8-61,33.37-122.65,99.11-101.4,105.07-127.88c0,0-67.91.22-111.07-61.19-43.83-62.37-55.67-155.66,42.7-223L385.25,433.49Z"/><path class="cls-1" d="M160,104.29s71.3-43.87,130.09-35.81c69,9.45,135.82,100,106.29,205.84,0,0,73.45,23.23,131.1-22.33s95.12-94.15,148.29-103,43.74,57.32,43.74,57.32L386.07,434.08Z"/><path class="cls-1" d="M384.44,432.91,718.66,205s1,62.8-44.9,111.07-62.49,65-91.3,79.31c0,0-19.61,4.91,1.62,18,56.2,34.65,98.14,97.79,114.2,138.08,0,0,22.35,8.71,52.34,4.37,27.66-4,51.48.75,79.2,20.82,0,0,170.64-94.95,67.76,43.16,0,0-37.49,49.77-66.72,120.64,0,0-11.89,26.5-36.87,12.22,0,0-105.64-82.3-176.1-23,0,0-14,11.92-17,19.67Z"/><path class="cls-1" d="M385.16,433.36l215.71,316.2S565,800.9,559.08,824.63c-7.1,28.39-18.1,58.28-22.75,120,0,0,7.27,59.31-26,64.82-33.69,5.6-18.56,3.54-78.09-.53,0,0-61.72,9-85,14.55-11.92,2.87-65.33-16.15,36.12-100.47,0,0,27.87-13.33,6.49-44.6,0,0-70.32-117.21-53.08-263.3,0,0,9.37-24.78-22.39-11.1-43.82,18.88-197,72.75-224.23,32.87Z"/><path class="cls-2" d="M90.91,637.94s-56.8-61,33.37-122.65,99.11-101.4,105.07-127.88c0,0-67.91.22-111.07-61.19-43.83-62.37-55.67-155.66,42.7-223L385.25,433.49Z"/><path class="cls-3" d="M160,104.29s71.3-43.87,130.09-35.81c69,9.45,135.82,100,106.29,205.84,0,0,73.45,23.23,131.1-22.33s95.12-94.15,148.29-103,43.74,57.32,43.74,57.32L386.07,434.08Z"/><path class="cls-4" d="M384.44,432.91,718.66,205s1,62.8-44.9,111.07-62.49,65-91.3,79.31c0,0-19.61,4.91,1.62,18,56.2,34.65,98.14,97.79,114.2,138.08,0,0,22.35,8.71,52.34,4.37,27.66-4,51.48.75,79.2,20.82,0,0,170.64-94.95,67.76,43.16,0,0-37.49,49.77-66.72,120.64,0,0-11.89,26.5-36.87,12.22,0,0-105.64-82.3-176.1-23,0,0-14,11.92-17,19.67Z"/><path class="cls-5" d="M385.16,433.36l215.71,316.2S565,800.9,559.08,824.63c-7.1,28.39-18.1,58.28-22.75,120,0,0,7.27,59.31-26,64.82-33.69,5.6-18.56,3.54-78.09-.53,0,0-61.72,9-85,14.55-11.92,2.87-65.33-16.15,36.12-100.47,0,0,27.87-13.33,6.49-44.6,0,0-70.32-117.21-53.08-263.3,0,0,9.37-24.78-22.39-11.1-43.82,18.88-197,72.75-224.23,32.87Z"/><path class="cls-6" d="M1729.41,872.73l12.69,96.54q-105.42,30.47-260.34,30.46-191.77,0-269.24-101.59t-77.46-351.78q0-250.2,77.46-351.8T1481.76,93q137.16,0,242.56,25.41l-12.69,97.8Q1610,206,1481.76,206q-120.66,0-167,73.68t-46.34,266.7q0,193,46.34,266.69t167,73.65Q1643.05,886.7,1729.41,872.73Z"/><path class="cls-6" d="M2342.82,174.23H2217.08q-57.14,0-80.64,21.6t-23.5,74.94v94h191.78V460H2112.94V984.5H1989.76V460H1878V371.09l111.75-6.36V256.8q0-90.17,43.17-136.53t141-46.36q119.37,0,179.06,8.89Z"/><path class="cls-6" d="M2502.84,984.5V108.2q166.36-11.43,316.22-11.43,193,0,269.87,97.79t76.85,351.78q0,254-76.85,351.8t-269.87,97.8Q2669.2,995.94,2502.84,984.5Zm127-776V881.62q81.26,3.82,189.22,3.82,119.39,0,165.73-73.66t46.36-265.42q0-191.76-46.36-265.44t-165.73-73.65q-38.11,0-101,.64T2629.84,208.53Z"/><path class="cls-6" d="M3410.88,984.5V108.2q107.92-11.43,304.8-11.43,163.83,0,225.42,58.42t61.59,218.43q0,161.31-59.06,219.72t-212.72,58.43a1661.66,1661.66,0,0,1-193-11.44V984.5Zm127-441.95h175.25q92.72-1.27,127-35.57t34.3-133.36q0-99-34.3-133.34t-127-34.3q-127,0-175.25,1.29Z"/></svg>