<?xml version="1.0" encoding="utf-8"?>
<!-- Generator: Adobe Illustrator 22.0.1, SVG Export Plug-In . SVG Version: 6.00 Build 0)  -->
<svg version="1.1" id="Layer_1" xmlns="http://www.w3.org/2000/svg" xmlns:xlink="http://www.w3.org/1999/xlink" x="0px" y="0px"
	 viewBox="0 0 3417.8 1091.2" style="enable-background:new 0 0 3417.8 1091.2;" xml:space="preserve">
<style type="text/css">
	.st0{fill:#ED1C24;}
	.st1{fill:#4D79C1;}
	.st2{fill:#FFBE4D;}
	.st3{fill:#64B95F;}
	.st4{fill:#ED6367;}
	.st5{fill:#4D4D4D;}
</style>
<title>CfDP2018 logoMini_svg</title>
<path class="st0" d="M96.2,648.2c0,0-56.8-61,33.4-122.7s99.1-101.4,105.1-127.9c0,0-67.9,0.2-111.1-61.2
	c-43.8-62.4-55.7-155.7,42.7-223l224.3,330.3L96.2,648.2z"/>
<path class="st0" d="M165.3,114.5c0,0,71.3-43.9,130.1-35.8c69,9.4,135.8,100,106.3,205.8c0,0,73.4,23.2,131.1-22.3
	s95.1-94.1,148.3-103s43.7,57.3,43.7,57.3L391.4,444.3L165.3,114.5z"/>
<path class="st0" d="M389.7,443.1L724,215.2c0,0,1,62.8-44.9,111.1s-62.5,65-91.3,79.3c0,0-19.6,4.9,1.6,18
	c56.2,34.6,98.2,97.8,114.2,138.1c0,0,22.3,8.7,52.3,4.4c27.7-4,51.5,0.7,79.2,20.8c0,0,170.6-95,67.8,43.2
	c0,0-37.5,49.8-66.7,120.6c0,0-11.9,26.5-36.9,12.2c0,0-105.6-82.3-176.1-23c0,0-14,11.9-17,19.7L389.7,443.1z"/>
<path class="st0" d="M390.5,443.6l215.7,316.2c0,0-35.8,51.3-41.8,75.1c-7.1,28.4-18.1,58.3-22.8,120c0,0,7.3,59.3-26,64.8
	c-33.7,5.6-18.6,3.5-78.1-0.5c0,0-61.7,8.9-85,14.6c-11.9,2.9-65.3-16.2,36.1-100.5c0,0,27.9-13.3,6.5-44.6
	c0,0-70.3-117.2-53.1-263.3c0,0,9.4-24.8-22.4-11.1c-43.8,18.9-196.9,72.8-224.2,32.9L390.5,443.6z"/>
<path class="st1" d="M96.2,648.2c0,0-56.8-61,33.4-122.7s99.1-101.4,105.1-127.9c0,0-67.9,0.2-111.1-61.2
	c-43.8-62.4-55.7-155.7,42.7-223l224.3,330.3L96.2,648.2z"/>
<path class="st2" d="M165.3,114.5c0,0,71.3-43.9,130.1-35.8c69,9.4,135.8,100,106.3,205.8c0,0,73.4,23.2,131.1-22.3
	s95.1-94.1,148.3-103s43.7,57.3,43.7,57.3L391.4,444.3L165.3,114.5z"/>
<path class="st3" d="M389.7,443.1L724,215.2c0,0,1,62.8-44.9,111.1s-62.5,65-91.3,79.3c0,0-19.6,4.9,1.6,18
	c56.2,34.6,98.2,97.8,114.2,138.1c0,0,22.3,8.7,52.3,4.4c27.7-4,51.5,0.7,79.2,20.8c0,0,170.6-95,67.8,43.2
	c0,0-37.5,49.8-66.7,120.6c0,0-11.9,26.5-36.9,12.2c0,0-105.6-82.3-176.1-23c0,0-14,11.9-17,19.7L389.7,443.1z"/>
<path class="st4" d="M390.5,443.6l215.7,316.2c0,0-35.8,51.3-41.8,75.1c-7.1,28.4-18.1,58.3-22.8,120c0,0,7.3,59.3-26,64.8
	c-33.7,5.6-18.6,3.5-78.1-0.5c0,0-61.7,8.9-85,14.6c-11.9,2.9-65.3-16.2,36.1-100.5c0,0,27.9-13.3,6.5-44.6
	c0,0-70.3-117.2-53.1-263.3c0,0,9.4-24.8-22.4-11.1c-43.8,18.9-196.9,72.8-224.2,32.9L390.5,443.6z"/>
<path class="st5" d="M1156.7,956.9l1.7,13.3c-9.7,2.8-21.6,4.2-35.8,4.2c-17.6,0-29.9-4.7-37-14s-10.7-25.4-10.6-48.3
	c0-22.9,3.5-39,10.6-48.3s19.4-14,37-14c11.2-0.1,22.4,1,33.3,3.5l-1.7,13.4c-9.3-0.9-19.9-1.4-31.6-1.4c-11.1,0-18.7,3.4-22.9,10.1
	c-4.2,6.7-6.4,19-6.4,36.6c0,17.7,2.1,29.9,6.4,36.6c4.2,6.7,11.9,10.1,22.9,10.1C1137.5,958.8,1148.8,958.2,1156.7,956.9z"/>
<path class="st5" d="M1229.7,937.9h-38.2c0.8,8.8,3.1,14.8,6.9,17.8s10,4.5,18.6,4.5c10-0.2,19.9-0.9,29.8-2.1l1.6,11.2
	c-7.7,3.4-18.9,5.1-33.7,5.1c-14.9,0-25.4-3.4-31.7-10.1s-9.3-18.3-9.3-34.7c0-16.5,3.1-28.1,9.2-34.7c6.1-6.6,16.2-9.9,30.3-9.9
	c13,0,22.5,2.4,28.4,7.2s8.9,11.9,8.9,21.5C1250.4,929.8,1243.5,937.9,1229.7,937.9z M1191.3,924.8h33.8c5.6,0,8.4-3.8,8.4-11.3
	c-0.1-5.2-1.6-8.9-4.4-11.1c-2.8-2.1-7.9-3.2-15-3.2c-8.4,0-14.2,1.8-17.4,5.3S1191.5,914.8,1191.3,924.8z"/>
<path class="st5" d="M1286,887.1l1,13.1c13.4-10.2,25.9-15.3,37.7-15.3c7.6,0,13.3,2,17.2,6s5.8,9.8,5.8,17.5v63.8h-16.9v-59
	c0-5.3-0.8-9-2.4-11.1c-1.6-2-4.4-3.1-8.5-3.1c-4.6,0-9.1,1.1-13.3,3c-6.2,2.9-12.3,6.2-18.1,9.8v60.3h-16.9V887L1286,887.1
	L1286,887.1z"/>
<path class="st5" d="M1420.5,958.5l1.9,13.1c-6.6,1.7-13.3,2.4-20.1,2.3c-7.2,0-12.7-2.1-16.5-6.2c-3.8-4.1-5.7-10-5.7-17.7v-49.7
	h-15.5V888l15.5-0.7v-25.1h16.7v25h26.3v13.1h-26.3v47.5c0,4,0.8,6.7,2.5,8.4s4.6,2.4,8.6,2.4L1420.5,958.5z"/>
<path class="st5" d="M1493,937.9h-38.2c0.8,8.8,3.1,14.8,6.9,17.8s10,4.5,18.6,4.5c10-0.2,19.9-0.9,29.8-2.1l1.6,11.2
	c-7.7,3.4-18.9,5.1-33.7,5.1c-14.9,0-25.4-3.4-31.7-10.1s-9.3-18.3-9.3-34.7c0-16.5,3.1-28.1,9.2-34.7c6.1-6.6,16.2-9.9,30.3-9.9
	c13,0,22.5,2.4,28.4,7.2s8.9,11.9,8.9,21.5C1513.8,929.8,1506.9,937.9,1493,937.9z M1454.6,924.8h33.8c5.6,0,8.4-3.8,8.4-11.3
	c-0.1-5.2-1.6-8.9-4.4-11.1c-2.8-2.1-7.9-3.2-15.1-3.2c-8.4,0-14.2,1.8-17.4,5.3C1456.6,908,1454.9,914.8,1454.6,924.8L1454.6,924.8
	z"/>
<path class="st5" d="M1589.7,884.9l-1.9,15.9h-5.2c-6.6,0-16.8,3.3-30.5,9.8v61.8h-16.9v-85.1h13.1l1.7,12.9
	c12.7-10.1,24.6-15.2,35.8-15.2h3.9V884.9z"/>
<path class="st5" d="M1693.4,861h-17.3c-5.2,0-8.9,1-11.1,3c-2.1,2-3.2,5.4-3.2,10.3v12.9h26.3v13.1h-26.3v72H1645v-72h-15.3V888
	l15.3-0.9v-14.8c0-8.2,2-14.5,5.9-18.8c4-4.3,10.4-6.4,19.4-6.4c10.9,0,19.1,0.4,24.6,1.2L1693.4,861z"/>
<path class="st5" d="M1709.3,895.2c6.2-6.9,16.6-10.3,31.4-10.3s25.2,3.4,31.4,10.3c6.2,6.9,9.2,18.4,9.2,34.7s-3.1,27.8-9.2,34.5
	c-6.2,6.8-16.6,10.1-31.4,10.1s-25.2-3.4-31.4-10.1c-6.2-6.7-9.2-18.3-9.2-34.5C1700.1,913.6,1703.2,902,1709.3,895.2z
	 M1758.9,905.6c-3.3-4.3-9.3-6.5-18.1-6.5c-8.8,0-14.9,2.1-18.1,6.5c-3.3,4.3-4.9,12.4-4.9,24.2s1.6,19.8,4.9,24.1s9.3,6.4,18.1,6.5
	c8.8,0,14.9-2.2,18.1-6.5c3.3-4.3,4.9-12.3,4.9-24.1S1762.1,909.9,1758.9,905.6z"/>
<path class="st5" d="M1858.1,884.9l-1.9,15.9h-5.2c-6.6,0-16.8,3.3-30.5,9.8v61.8h-16.9v-85.1h13.1l1.7,12.9
	c12.7-10.1,24.6-15.2,35.8-15.2h3.9V884.9z"/>
<path class="st5" d="M1910.8,972.2V851.9c15.2-1,29.7-1.6,43.4-1.6c17.7,0,30,4.5,37.1,13.4s10.6,25.1,10.6,48.3
	c0,23.3-3.5,39.4-10.6,48.3s-19.4,13.4-37.1,13.4C1940.5,973.8,1926,973.3,1910.8,972.2z M1928.2,865.7v92.5
	c7.4,0.3,16.1,0.5,26,0.5c10.9,0,18.5-3.4,22.8-10.1s6.4-18.9,6.4-36.5s-2.1-29.7-6.4-36.5c-4.2-6.7-11.8-10.1-22.8-10.1
	c-3.5,0-8.1,0-13.9,0.1S1930.6,865.7,1928.2,865.7z"/>
<path class="st5" d="M2030.3,850.8h8c3.3,0,4.9,1.6,4.9,4.9v9.8c0,3.4-1.6,5.1-4.9,5.1h-8c-3.3,0-4.9-1.7-4.9-5.1v-9.8
	C2025.4,852.5,2027,850.8,2030.3,850.8z M2042.7,972.2h-16.8v-85.1h16.8V972.2z"/>
<path class="st5" d="M2149.8,896.2l-12,1.2c2,4,3,8.9,3,14.8c0,9.6-2.8,16.6-8.3,20.8s-15.1,6.4-28.7,6.4
	c-5.7,0.1-11.3-0.4-16.9-1.4c-1.8,2.2-2.4,5.3-1.5,8c0.9,2.9,3.2,4.6,6.9,5.2l31.4,4.9c8,1.2,13.7,3.7,17.2,7.5s5.2,9.4,5.1,16.8
	c0,10.1-3,17.1-8.9,20.9c-5.9,3.8-16.7,5.8-32.3,5.8c-15.7,0-26.6-1.9-32.6-5.7s-9.1-10.6-9.1-20.5c0-4.8,1-8.5,3.1-11.3
	s5.6-5.6,10.5-8.4c-4.1-3.4-5.9-7.9-5.5-13.5s2.6-9.9,6.7-12.8c-7.4-3.8-11.2-11.3-11.2-22.5c0-10,2.7-17.1,8.2-21.3
	s15.1-6.3,29-6.3c8.5,0,15.2,0.8,20.2,2.3h26.5L2149.8,896.2z M2114.9,968.6l-27.4-3.7c-5.3,4.4-8,9.3-8,14.7
	c0,5.6,1.6,9.2,4.8,10.8s10,2.4,20.3,2.4c10,0,16.6-0.8,19.9-2.5c3.3-1.7,4.9-5.3,4.9-10.7c0-4-0.9-6.5-2.6-7.8
	S2121,969.5,2114.9,968.6z M2103.7,926.7c7.9,0,13.4-1.1,16.6-3.2c3.1-2.1,4.7-5.9,4.7-11.2c0-5.5-1.5-9.3-4.6-11.3
	c-3.1-2.1-8.6-3.1-16.6-3.1c-8.2,0-13.8,1-16.9,3.1c-3.1,2.1-4.7,5.9-4.7,11.3c0,5.2,1.6,9,4.8,11.2S2095.7,926.7,2103.7,926.7
	L2103.7,926.7z"/>
<path class="st5" d="M2172.4,850.8h8c3.3,0,4.9,1.6,4.9,4.9v9.8c0,3.4-1.6,5.1-4.9,5.1h-8c-3.3,0-4.9-1.7-4.9-5.1v-9.8
	C2167.6,852.5,2169.2,850.8,2172.4,850.8z M2184.8,972.2h-16.7v-85.1h16.7V972.2z"/>
<path class="st5" d="M2258.8,958.5l1.9,13.1c-6.6,1.7-13.3,2.4-20.1,2.3c-7.2,0-12.7-2.1-16.5-6.2s-5.7-10-5.7-17.7v-49.7H2203V888
	l15.5-0.7v-25.1h16.7v25h26.3v13.1h-26.3v47.5c0,4,0.9,6.7,2.5,8.4s4.6,2.4,8.6,2.4L2258.8,958.5z"/>
<path class="st5" d="M2280.1,901.3l-1.6-12.4c13.6-2.5,27.5-3.8,41.3-4c10.4,0,18,2.1,22.9,6.3s7.3,11.5,7.3,21.8v59.3h-13.3
	l-1.9-13.4c-9.8,10-21.1,15-34,15c-7.9,0-14.2-2.1-18.9-6.3s-7.1-10.1-7.1-17.8v-8.9c0-6.7,2.1-12,6.3-15.7s10.1-5.6,17.8-5.6h34.2
	V913c-0.1-5.2-1.3-8.8-3.7-10.8c-2.3-2-6.7-3-13.2-3C2309.8,899.2,2297.7,899.9,2280.1,901.3z M2291.9,943.1v4.5c0,4.2,1,7.2,3,9.1
	s5.1,2.8,9.4,2.8c10.1,0,19.7-4,28.8-11.9v-15.4h-31c-3.7,0.1-6.3,1.1-7.9,2.9C2292.7,937,2291.9,939.6,2291.9,943.1L2291.9,943.1z"
	/>
<path class="st5" d="M2392.6,850.2v97.5c-0.1,3.6,0.8,6.3,2.6,8.1c1.9,1.8,4.7,2.7,8.4,2.7h7.9l1.9,13.1c-3.4,1.5-8.8,2.3-16.2,2.3
	c-6.6,0-11.9-1.9-15.7-5.8c-3.8-3.9-5.8-9.4-5.8-16.5V850.2H2392.6z"/>
<path class="st5" d="M2464.2,972.2V851.9c9.9-1,23.8-1.6,41.9-1.6c15,0,25.3,2.7,31,8s8.5,15.3,8.5,30c0,14.8-2.7,24.8-8.1,30.2
	s-15.1,8-29.2,8c-8.9,0-17.7-0.5-26.5-1.6v47.3L2464.2,972.2z M2481.7,911.5h24.1c8.5-0.1,14.3-1.8,17.4-4.9
	c3.1-3.1,4.7-9.2,4.7-18.3s-1.6-15.2-4.7-18.3c-3.1-3.1-9-4.7-17.4-4.7c-11.6,0-19.7,0.1-24.1,0.2V911.5z"/>
<path class="st5" d="M2674.1,937.9h-37.3c0.7,8.8,2.9,14.8,6.7,17.8s10,4.5,18.6,4.5c10-0.1,19.9-0.8,29.8-2.1l1.6,11.2
	c-7.6,3.4-18.7,5.1-33.5,5.1c-9.9,0-17.8-1.4-23.6-4.3c-5.9-2.9-10.5-7.7-13.2-13.7c-4.3,4.9-9.4,8.9-15.2,12
	c-6.5,3.6-13.8,5.5-21.3,5.4c-7.9,0-14.2-2.1-18.9-6.3s-7.1-10.1-7.1-17.8v-8.9c0-6.7,2.1-12,6.3-15.7s10.1-5.6,17.8-5.6h34.2v-6.6
	c0-5.2-1.2-8.8-3.6-10.8c-2.4-2-6.8-3-13.3-3c-6.4,0-18.4,0.7-36.1,2.1l-1.6-12.4c13.6-2.5,27.5-3.8,41.3-4
	c11.6,0,19.8,2.6,24.4,7.8c6-5.2,15.5-7.8,28.3-7.8c12.9,0,22.3,2.4,28.2,7.2s8.9,11.9,8.9,21.5
	C2695.8,929.7,2688.6,937.9,2674.1,937.9z M2577.8,943.1v4.5c0,4.2,1,7.2,3,9.1s5.1,2.8,9.4,2.8c5.1-0.1,10.1-1.2,14.8-3.2
	c5.6-2.3,10.8-5.5,15.2-9.7c-0.8-4.7-1.3-9.5-1.4-14.3H2588c-3.7,0.1-6.3,1.1-7.9,2.9S2577.8,939.6,2577.8,943.1z M2636.4,924.8h33
	c6.2,0,9.2-3.8,9.2-11.3c0-5.1-1.5-8.8-4.4-11s-8-3.3-15.2-3.3c-8.4,0-14.2,1.8-17.4,5.3C2638.4,908,2636.7,914.8,2636.4,924.8
	L2636.4,924.8z"/>
<path class="st5" d="M2777.9,972.2l-1.4-11.7c-10.9,9.2-22.1,13.8-33.5,13.8c-10.5,0-18-3.8-22.8-11.2s-7.1-18.8-7.1-33.8
	c0-16.3,2.6-27.8,7.9-34.5c5.2-6.7,13.4-10,24.6-10c10.3-0.1,20.4,2.5,29.3,7.7c-0.5-5-0.7-10.6-0.7-16.7v-25.7h16.9v122.1
	L2777.9,972.2L2777.9,972.2z M2774.2,949v-45.3c-10.6-2.8-18.7-4.2-24.4-4.2c-7.2,0-12.2,2-15,6s-4.2,11.9-4.2,23.6
	c0,11.7,1.4,19.8,4.1,24.1c2.7,4.3,7.4,6.5,14,6.5c3.9,0.1,7.8-0.7,11.4-2.3C2765,955,2769.7,952.2,2774.2,949L2774.2,949z"/>
<path class="st5" d="M2818,901.3l-1.6-12.4c13.6-2.5,27.5-3.8,41.3-4c10.3,0,18,2.1,22.9,6.3s7.3,11.5,7.3,21.8v59.3h-13.3
	l-1.9-13.4c-9.8,10-21.1,15-34,15c-7.9,0-14.2-2.1-18.9-6.3s-7.1-10.1-7.1-17.8v-8.9c0-6.7,2.1-12,6.3-15.7s10.1-5.6,17.8-5.6h34.1
	V913c-0.1-5.2-1.3-8.8-3.7-10.8c-2.3-2-6.7-3-13.2-3C2847.7,899.2,2835.7,899.9,2818,901.3z M2829.9,943.1v4.5c0,4.2,1,7.2,3,9.1
	s5.1,2.8,9.4,2.8c10.1,0,19.7-4,28.8-11.9v-15.4H2840c-3.7,0.1-6.3,1.1-7.9,2.9S2829.9,939.6,2829.9,943.1L2829.9,943.1z"/>
<path class="st5" d="M2993.6,896.2l-12,1.2c2,4,3,8.9,3,14.8c0,9.6-2.8,16.6-8.3,20.8s-15.1,6.4-28.7,6.4
	c-5.7,0.1-11.3-0.4-16.9-1.4c-1.8,2.2-2.4,5.3-1.5,8c0.9,2.9,3.2,4.6,6.9,5.2l31.4,4.9c8,1.2,13.7,3.7,17.2,7.5s5.2,9.4,5.1,16.8
	c0,10.1-3,17.1-8.9,20.9c-5.9,3.8-16.7,5.8-32.3,5.8c-15.7,0-26.6-1.9-32.6-5.7s-9.1-10.6-9.1-20.4c0-4.8,1-8.5,3.1-11.3
	s5.6-5.6,10.5-8.4c-4.1-3.4-5.9-7.9-5.5-13.5s2.6-9.9,6.7-12.8c-7.4-3.8-11.2-11.3-11.2-22.5c0-10,2.7-17.1,8.2-21.3
	s15.1-6.3,29-6.3c8.5,0,15.2,0.8,20.2,2.3h26.5L2993.6,896.2z M2958.8,968.6l-27.4-3.7c-5.3,4.4-8,9.3-8,14.7
	c0,5.6,1.6,9.2,4.8,10.8s10,2.4,20.3,2.4c10,0,16.6-0.8,19.9-2.5c3.3-1.7,4.9-5.3,4.9-10.7c0-4-0.9-6.5-2.6-7.8
	C2968.9,970.6,2964.9,969.5,2958.8,968.6z M2947.6,926.7c7.9,0,13.4-1.1,16.6-3.2c3.1-2.1,4.7-5.9,4.7-11.2c0-5.5-1.5-9.3-4.6-11.3
	c-3.1-2.1-8.6-3.1-16.7-3.1c-8.1,0-13.8,1-16.9,3.1c-3.1,2.1-4.7,5.9-4.7,11.3c0,5.2,1.6,9,4.8,11.2
	C2934,925.6,2939.6,926.7,2947.6,926.7L2947.6,926.7z"/>
<path class="st5" d="M3015.8,895.2c6.2-6.9,16.6-10.3,31.4-10.3s25.2,3.4,31.4,10.3s9.2,18.4,9.2,34.7s-3.1,27.8-9.2,34.5
	c-6.2,6.8-16.6,10.1-31.4,10.1s-25.2-3.4-31.4-10.1c-6.2-6.7-9.2-18.3-9.2-34.5C3006.6,913.6,3009.6,902,3015.8,895.2z
	 M3065.3,905.6c-3.3-4.3-9.3-6.5-18.1-6.5s-14.9,2.1-18.1,6.5c-3.3,4.3-4.9,12.4-4.9,24.2s1.6,19.8,4.9,24.1s9.3,6.4,18.1,6.5
	c8.8,0,14.9-2.2,18.1-6.5c3.3-4.3,4.9-12.3,4.9-24.1S3068.6,909.9,3065.3,905.6z"/>
<path class="st5" d="M3190.2,896.2l-12,1.2c2,4,3,8.9,3,14.8c0,9.6-2.8,16.6-8.3,20.8s-15.1,6.4-28.7,6.4
	c-5.7,0.1-11.3-0.4-16.9-1.4c-1.8,2.2-2.4,5.3-1.5,8c0.9,2.9,3.2,4.6,6.9,5.2l31.4,4.9c8,1.2,13.7,3.7,17.2,7.5s5.2,9.4,5.1,16.8
	c0,10.1-3,17.1-8.9,20.9c-5.9,3.8-16.7,5.8-32.3,5.8c-15.7,0-26.6-1.9-32.6-5.7s-9.1-10.6-9.1-20.5c0-4.8,1-8.5,3.1-11.3
	s5.6-5.6,10.5-8.4c-4.1-3.4-5.9-7.9-5.5-13.5s2.6-9.9,6.7-12.8c-7.4-3.8-11.2-11.3-11.2-22.5c0-10,2.7-17.1,8.2-21.3
	s15.1-6.3,29-6.3c8.5,0,15.2,0.8,20.2,2.3h26.5L3190.2,896.2z M3155.3,968.6l-27.3-3.7c-5.3,4.4-8,9.3-8,14.7
	c0,5.6,1.6,9.2,4.8,10.8s10,2.4,20.3,2.4c10,0,16.6-0.8,19.9-2.5c3.3-1.7,4.9-5.3,4.9-10.7c0-4-0.9-6.5-2.6-7.8
	C3165.5,970.6,3161.5,969.5,3155.3,968.6z M3144.2,926.7c7.9,0,13.4-1.1,16.6-3.2c3.1-2.1,4.7-5.9,4.7-11.2c0-5.5-1.5-9.3-4.6-11.3
	c-3.1-2.1-8.6-3.1-16.7-3.1c-8.1,0-13.8,1-16.9,3.1c-3.1,2.1-4.7,5.9-4.7,11.3c0,5.2,1.6,9,4.8,11.2S3136.2,926.7,3144.2,926.7
	L3144.2,926.7z"/>
<path class="st5" d="M3212.9,850.8h8c3.3,0,4.9,1.6,4.9,4.9v9.8c0,3.4-1.6,5.1-4.9,5.1h-8c-3.2,0-4.9-1.7-4.9-5.1v-9.8
	C3208,852.5,3209.6,850.9,3212.9,850.8z M3225.3,972.2h-16.8v-85.1h16.8V972.2z"/>
<path class="st5" d="M3278.8,930.4h-10.6c0.5,4.4,0.8,8.8,0.9,13.2v28.6h-16.9v-122h17.1v53.5c0,4.8-0.3,9.7-1,14.5h10.5l25.6-31
	h19.5l-25.7,30.8c-1.8,2.4-3.9,4.5-6.3,6.3v0.3c2.5,2.1,4.6,4.5,6.3,7.3l28.4,40.3h-19.5L3278.8,930.4z"/>
<path class="st5" d="M1450.8,693.5l8.5,62.3c-52.2,14.5-115.8,21.7-190.6,21.7c-93.7,0-159.8-25.2-198.1-75.5S1013,564.6,1013,440.7
	s19.2-211,57.6-261.4s104.4-75.5,198.1-75.5c67.3,0,126.5,6.3,177.4,18.9l-8.5,63.2c-56.6-5.7-112.9-8.5-168.9-8.5
	c-63.5,0-107.4,19-131.6,57.1s-36.3,106.8-36.3,206.2s12.1,168.1,36.3,206.1s68.1,57.1,131.6,57.1
	C1341.6,703.9,1402.3,700.5,1450.8,693.5z"/>
<path class="st5" d="M2011.2,185h-244.4c-22,0-38,4.9-48.1,14.6s-15.1,25.6-15.1,47.6v151h271.7v67h-271.7v301h-83v-535
	c0-37.1,11.3-65.9,34-86.3c22.7-20.5,53.2-30.7,91.5-30.7c123.9,0,213.9,2.2,269.8,6.6L2011.2,185z"/>
<path class="st5" d="M2178.2,766.2v-651c81.8-5.7,159.1-8.5,232.1-8.5c93.7,0,159.4,24.4,197.2,73.1s56.6,135.7,56.6,260.9
	s-18.9,212.1-56.6,260.9c-37.7,48.7-103.5,73.1-197.2,73.1C2337.3,774.7,2260,771.9,2178.2,766.2z M2261.2,180.3v519.9
	c56.6,1.3,106.3,1.9,149.1,1.9c62.3,0,105.7-19,130.2-57.1s36.8-106.1,36.8-204.3s-12.3-166.4-36.8-204.8s-67.9-57.6-130.2-57.6
	C2370,178.4,2320.3,179,2261.2,180.3L2261.2,180.3z"/>
<path class="st5" d="M2851.8,766.2v-651c52.8-5.7,127.4-8.5,223.6-8.5c79.3,0,134,14.3,164.2,42.9s45.3,82.2,45.3,160.9
	s-14.6,132.3-43.9,160.9s-81.3,42.9-156.1,42.9c-50.1,0.1-100.2-2.8-150-8.5v260.4L2851.8,766.2L2851.8,766.2z M2934.8,442.6h139.6
	c48.4-0.6,81.6-9.9,99.5-27.8s26.9-52.7,26.9-104.3s-9.1-86.5-27.4-104.7s-51.3-27.4-99.1-27.4c-68.6,0-115.1,0.3-139.6,0.9
	L2934.8,442.6z"/>
</svg>
